<?xml version="1.0" encoding="UTF-8" standalone="no"?>
<!-- Generator: Adobe Illustrator 19.0.0, SVG Export Plug-In . SVG Version: 6.00 Build 0)  -->

<svg
   xmlns:dc="http://purl.org/dc/elements/1.1/"
   xmlns:cc="http://creativecommons.org/ns#"
   xmlns:rdf="http://www.w3.org/1999/02/22-rdf-syntax-ns#"
   xmlns:svg="http://www.w3.org/2000/svg"
   xmlns="http://www.w3.org/2000/svg"
   xmlns:sodipodi="http://sodipodi.sourceforge.net/DTD/sodipodi-0.dtd"
   xmlns:inkscape="http://www.inkscape.org/namespaces/inkscape"
   version="1.1"
   id="Layer_1"
   x="0px"
   y="0px"
   viewBox="0 0 482.2917 224.22219"
   xml:space="preserve"
   sodipodi:docname="policia-militar-sp-logo.svg"
   width="482.29169"
   height="224.2222"
   inkscape:version="0.92.2 (5c3e80d, 2017-08-06)"><metadata
     id="metadata167"><rdf:RDF><cc:Work
         rdf:about=""><dc:format>image/svg+xml</dc:format><dc:type
           rdf:resource="http://purl.org/dc/dcmitype/StillImage" /><dc:title></dc:title></cc:Work></rdf:RDF></metadata><defs
     id="defs165" /><sodipodi:namedview
     pagecolor="#ffffff"
     bordercolor="#666666"
     borderopacity="1"
     objecttolerance="10"
     gridtolerance="10"
     guidetolerance="10"
     inkscape:pageopacity="0"
     inkscape:pageshadow="2"
     inkscape:window-width="1600"
     inkscape:window-height="837"
     id="namedview163"
     showgrid="false"
     fit-margin-top="0"
     fit-margin-left="0"
     fit-margin-right="0"
     fit-margin-bottom="0"
     inkscape:zoom="1.4142136"
     inkscape:cx="245.19457"
     inkscape:cy="52.939321"
     inkscape:window-x="-8"
     inkscape:window-y="-8"
     inkscape:window-maximized="1"
     inkscape:current-layer="Layer_1" /><style
     type="text/css"
     id="style2">
	.st0{fill-rule:evenodd;clip-rule:evenodd;fill:#FFFFFF;}
	.st1{fill-rule:evenodd;clip-rule:evenodd;fill:#808285;}
	
		.st2{fill-rule:evenodd;clip-rule:evenodd;fill:#FFFFFF;stroke:#808285;stroke-width:2.0001;stroke-linecap:round;stroke-linejoin:round;stroke-miterlimit:2.6131;}
	.st3{fill-rule:evenodd;clip-rule:evenodd;}
	.st4{fill-rule:evenodd;clip-rule:evenodd;stroke:#000000;stroke-width:0.216;stroke-miterlimit:2.6131;}
	.st5{fill-rule:evenodd;clip-rule:evenodd;fill:#FFFFFF;stroke:#000000;stroke-width:0.5;stroke-miterlimit:2.6131;}
	.st6{fill-rule:evenodd;clip-rule:evenodd;fill:#313896;stroke:#000000;stroke-width:0.5;stroke-miterlimit:2.6131;}
	.st7{fill-rule:evenodd;clip-rule:evenodd;fill:#ED1C24;stroke:#000000;stroke-width:0.5;stroke-miterlimit:2.6131;}
	.st8{fill-rule:evenodd;clip-rule:evenodd;fill:#FFF200;}
	.st9{fill-rule:evenodd;clip-rule:evenodd;fill:#D2AB67;}
</style><g
     id="g6"
     transform="translate(-171.8035,-308.88196)" /><g
     id="g160"
     inkscape:export-xdpi="28.019875"
     inkscape:export-ydpi="28.019875"
     transform="translate(-171.8035,-308.88196)"><path
       class="st2"
       d="m 206.1,365.9 15.3,15.3 -3.9,4 c -2.7,2.7 -0.5,5.8 2,5.8 h 8.7 c 4.3,34.5 28.3,59.5 64.3,59.5 30,0 50.2,-19.5 60,-46.7 l 14.3,-14.4 c 2.4,-2.5 2.3,-5.5 -1.8,-5.5 h -7.3 c 0,-3.2 2.6,-5.2 2.6,-5.3 l 12,-12.3 c 2.8,-2.8 3.7,-3.9 1,-6.7 -7.2,-7.7 -12.5,-13.2 -20,-21.2 -18.7,-19.9 -40.4,-29 -63,-29.5 -24.1,-0.5 -45.4,9.4 -64.5,29 -6.2,6.4 -13.4,13.8 -21,21.7 -2,2.4 -1.4,3.6 1.3,6.3 z"
       id="path10"
       style="clip-rule:evenodd;fill:#ffffff;fill-rule:evenodd;stroke:none;stroke-width:2.0000999;stroke-linecap:round;stroke-linejoin:round;stroke-miterlimit:2.61310005"
       inkscape:connector-curvature="0" /><polygon
       class="st3"
       points="304.1,350.8 300.8,347.1 260.4,347.1 256.8,350.8 "
       id="polygon12"
       style="clip-rule:evenodd;fill-rule:evenodd" /><polygon
       class="st4"
       points="292.1,365.4 242.4,365.4 246,361.7 292.1,361.7 "
       id="polygon14"
       style="clip-rule:evenodd;fill-rule:evenodd;stroke:#000000;stroke-width:0.21600001;stroke-miterlimit:2.61310005" /><polygon
       class="st4"
       points="292.1,372.7 292.1,369 238.8,369 235.2,372.7 "
       id="polygon16"
       style="clip-rule:evenodd;fill-rule:evenodd;stroke:#000000;stroke-width:0.21600001;stroke-miterlimit:2.61310005" /><polygon
       class="st3"
       points="280,423.7 283.3,427.3 323.6,427.3 327.2,423.7 "
       id="polygon18"
       style="clip-rule:evenodd;fill-rule:evenodd" /><polygon
       class="st3"
       points="307.5,354.4 316.3,364.1 292.1,358.1 249.6,358.1 253.2,354.4 "
       id="polygon20"
       style="clip-rule:evenodd;fill-rule:evenodd" /><path
       class="st5"
       d="m 292,353.8 c 18.4,0 33.4,15 33.4,33.4 0,18.4 -15,33.4 -33.4,33.4 -18.4,0 -33.4,-15 -33.4,-33.4 0,-18.4 15,-33.4 33.4,-33.4 z"
       id="path22"
       inkscape:connector-curvature="0"
       style="clip-rule:evenodd;fill:#ffffff;fill-rule:evenodd;stroke:#000000;stroke-width:0.5;stroke-miterlimit:2.61310005" /><path
       class="st6"
       d="m 292,355.3 c 17.6,0 32,14.4 32,32 0,17.6 -14.4,32 -32,32 -17.6,0 -32,-14.4 -32,-32 0.1,-17.7 14.4,-32 32,-32 z"
       id="path24"
       inkscape:connector-curvature="0"
       style="clip-rule:evenodd;fill:#313896;fill-rule:evenodd;stroke:#000000;stroke-width:0.5;stroke-miterlimit:2.61310005" /><path
       class="st4"
       d="m 224.4,383.6 -0.4,0.4 -3.3,3.3 h 37.8 c 0,0 0,0 0,0 0,-1.2 0.1,-2.4 0.2,-3.6 h -34.3 z"
       id="path26"
       inkscape:connector-curvature="0"
       style="clip-rule:evenodd;fill-rule:evenodd;stroke:#000000;stroke-width:0.21600001;stroke-miterlimit:2.61310005" /><path
       class="st4"
       d="M 231.6,376.3 228,380 h 31.4 c 0.3,-1.2 0.6,-2.5 1,-3.6 h -28.8 z"
       id="path28"
       inkscape:connector-curvature="0"
       style="clip-rule:evenodd;fill-rule:evenodd;stroke:#000000;stroke-width:0.21600001;stroke-miterlimit:2.61310005" /><path
       class="st4"
       d="m 359.7,390.8 0.3,-0.4 3.3,-3.3 h -37.8 c 0,0 0,0 0,0 0,1.2 -0.1,2.4 -0.2,3.6 h 34.4 z"
       id="path30"
       inkscape:connector-curvature="0"
       style="clip-rule:evenodd;fill-rule:evenodd;stroke:#000000;stroke-width:0.21600001;stroke-miterlimit:2.61310005" /><path
       class="st4"
       d="m 352.5,398.1 3.6,-3.6 h -31.4 c -0.3,1.2 -0.6,2.5 -1,3.6 z"
       id="path32"
       inkscape:connector-curvature="0"
       style="clip-rule:evenodd;fill-rule:evenodd;stroke:#000000;stroke-width:0.21600001;stroke-miterlimit:2.61310005" /><path
       class="st4"
       d="m 345.3,405.4 3.6,-3.6 h -26.8 c -0.6,1.3 -1.3,2.5 -2.1,3.6 z"
       id="path34"
       inkscape:connector-curvature="0"
       style="clip-rule:evenodd;fill-rule:evenodd;stroke:#000000;stroke-width:0.21600001;stroke-miterlimit:2.61310005" /><path
       class="st4"
       d="m 338.1,412.7 h -24.5 c 1.3,-1.1 2.6,-2.3 3.7,-3.6 h 24.4 z"
       id="path36"
       inkscape:connector-curvature="0"
       style="clip-rule:evenodd;fill-rule:evenodd;stroke:#000000;stroke-width:0.21600001;stroke-miterlimit:2.61310005" /><path
       class="st3"
       d="m 330.8,420 h -32.5 c 3.6,-0.7 6.9,-1.9 10,-3.7 h 26.1 z m -45.1,0 h -9.1 l -8.6,-9.4 2.5,2.1 c 4.4,3.7 9.5,6.2 15.2,7.3 z"
       id="path38"
       inkscape:connector-curvature="0"
       style="clip-rule:evenodd;fill-rule:evenodd" /><polygon
       class="st0"
       points="291,415.6 289.2,415.3 288.4,417 288.1,415.2 286.1,414.9 287.9,414 287.5,412.2 288.9,413.5 290.5,412.6 289.7,414.3 "
       id="polygon40"
       style="clip-rule:evenodd;fill:#ffffff;fill-rule:evenodd" /><polygon
       class="st0"
       points="284.5,414.6 282.8,413.9 281.6,415.3 281.8,413.5 279.9,412.8 281.8,412.4 282,410.5 282.9,412.1 284.7,411.6 283.5,413.1 "
       id="polygon42"
       style="clip-rule:evenodd;fill:#ffffff;fill-rule:evenodd" /><polygon
       class="st0"
       points="278.6,412.1 277.1,411.1 275.7,412.3 276.1,410.5 274.5,409.4 276.4,409.4 276.9,407.6 277.6,409.3 279.4,409.2 278,410.4 "
       id="polygon44"
       style="clip-rule:evenodd;fill:#ffffff;fill-rule:evenodd" /><polygon
       class="st0"
       points="273.2,408.3 271.9,407 270.2,407.8 271.1,406.1 269.8,404.7 271.7,405.2 272.6,403.5 272.8,405.4 274.6,405.7 273,406.5 "
       id="polygon46"
       style="clip-rule:evenodd;fill:#ffffff;fill-rule:evenodd" /><polygon
       class="st0"
       points="268.8,403.5 267.9,401.9 266.1,402.3 267.4,400.9 266.4,399.2 268.1,400 269.3,398.7 269.2,400.5 270.8,401.2 269,401.6 "
       id="polygon48"
       style="clip-rule:evenodd;fill:#ffffff;fill-rule:evenodd" /><polygon
       class="st0"
       points="265.7,397.7 265.2,395.9 263.3,395.8 264.9,394.8 264.4,392.9 265.8,394.2 267.4,393.1 266.7,394.9 268.2,396 266.3,395.9 "
       id="polygon50"
       style="clip-rule:evenodd;fill:#ffffff;fill-rule:evenodd" /><polygon
       class="st0"
       points="264.1,391.4 264,389.6 262.2,389.1 263.9,388.4 263.8,386.5 265,388 266.7,387.3 265.7,388.9 266.9,390.3 265.1,389.9 "
       id="polygon52"
       style="clip-rule:evenodd;fill:#ffffff;fill-rule:evenodd" /><polygon
       class="st0"
       points="263.9,384.8 264.2,382.9 262.6,382.1 264.4,381.8 264.8,379.9 265.6,381.7 267.4,381.5 266,382.7 266.8,384.4 265.2,383.5 "
       id="polygon54"
       style="clip-rule:evenodd;fill:#ffffff;fill-rule:evenodd" /><polygon
       class="st0"
       points="265.2,378.3 266,376.6 264.6,375.4 266.5,375.6 267.3,373.8 267.6,375.7 269.4,376 267.8,376.9 268.2,378.7 266.8,377.4 "
       id="polygon56"
       style="clip-rule:evenodd;fill:#ffffff;fill-rule:evenodd" /><polygon
       class="st0"
       points="268,372.3 269.2,370.9 268.2,369.4 269.9,370 271.1,368.5 271,370.4 272.7,371.1 270.9,371.6 270.8,373.4 269.8,371.9 "
       id="polygon58"
       style="clip-rule:evenodd;fill:#ffffff;fill-rule:evenodd" /><polygon
       class="st0"
       points="272.1,367.4 273.5,366.2 272.8,364.5 274.4,365.4 275.9,364.2 275.4,366 276.9,367 275.1,367.2 274.7,368.9 274,367.2 "
       id="polygon60"
       style="clip-rule:evenodd;fill:#ffffff;fill-rule:evenodd" /><polygon
       class="st0"
       points="277.2,363.3 278.8,362.5 278.5,360.6 279.8,361.9 281.6,361 280.6,362.7 281.9,364 280.1,363.8 279.3,365.4 279,363.6 "
       id="polygon62"
       style="clip-rule:evenodd;fill:#ffffff;fill-rule:evenodd" /><polygon
       class="st0"
       points="283.2,360.5 285,360.1 285.1,358.2 286.1,359.8 288,359.4 286.7,360.8 287.6,362.4 285.9,361.6 284.7,363 284.9,361.2 "
       id="polygon64"
       style="clip-rule:evenodd;fill:#ffffff;fill-rule:evenodd" /><polygon
       class="st0"
       points="289.6,359.2 291.5,359.2 292.1,357.5 292.6,359.2 294.6,359.3 293,360.3 293.5,362.1 292,361 290.5,362 291.1,360.3 "
       id="polygon66"
       style="clip-rule:evenodd;fill:#ffffff;fill-rule:evenodd" /><polygon
       class="st0"
       points="296.1,359.4 297.9,359.9 298.8,358.3 299,360.1 300.9,360.6 299.1,361.2 299.3,363.1 298,361.7 296.3,362.4 297.3,360.8 "
       id="polygon68"
       style="clip-rule:evenodd;fill:#ffffff;fill-rule:evenodd" /><polygon
       class="st0"
       points="302.5,361.1 304.1,362 305.4,360.6 305.1,362.5 306.9,363.4 305,363.6 304.7,365.4 303.8,363.8 302,364.1 303.3,362.8 "
       id="polygon70"
       style="clip-rule:evenodd;fill:#ffffff;fill-rule:evenodd" /><polygon
       class="st0"
       points="308.2,364.2 309.6,365.4 311.2,364.4 310.5,366.1 312,367.4 310,367.2 309.3,368.9 308.9,367.1 307.1,367 308.6,366 "
       id="polygon72"
       style="clip-rule:evenodd;fill:#ffffff;fill-rule:evenodd" /><polygon
       class="st0"
       points="313.1,368.5 314.2,370 316,369.5 314.9,371 316,372.6 314.2,371.9 313.1,373.4 313.1,371.5 311.4,371 313.1,370.4 "
       id="polygon74"
       style="clip-rule:evenodd;fill:#ffffff;fill-rule:evenodd" /><polygon
       class="st0"
       points="316.7,373.8 317.5,375.5 319.3,375.2 318,376.5 318.8,378.3 317.1,377.3 315.8,378.5 316.1,376.7 314.5,375.8 316.3,375.6 "
       id="polygon76"
       style="clip-rule:evenodd;fill:#ffffff;fill-rule:evenodd" /><polygon
       class="st0"
       points="319.3,379.9 319.6,381.7 321.4,382 319.8,382.9 320.2,384.8 318.8,383.4 317.2,384.3 318,382.6 316.6,381.4 318.5,381.6 "
       id="polygon78"
       style="clip-rule:evenodd;fill:#ffffff;fill-rule:evenodd" /><polygon
       class="st0"
       points="320.3,386.5 320.2,388.3 321.9,389 320.1,389.5 319.9,391.5 319,389.8 317.2,390.2 318.4,388.8 317.4,387.2 319.1,387.9 "
       id="polygon80"
       style="clip-rule:evenodd;fill:#ffffff;fill-rule:evenodd" /><polygon
       class="st0"
       points="319.6,392.8 319.1,394.6 320.7,395.6 318.8,395.7 318.3,397.6 317.7,395.8 315.9,395.9 317.3,394.7 316.6,393 318.2,394 "
       id="polygon82"
       style="clip-rule:evenodd;fill:#ffffff;fill-rule:evenodd" /><polygon
       class="st0"
       points="317.7,399.2 316.7,400.8 318,402.2 316.2,401.8 315.2,403.5 315,401.5 313.2,401.2 314.9,400.4 314.7,398.6 316,399.9 "
       id="polygon84"
       style="clip-rule:evenodd;fill:#ffffff;fill-rule:evenodd" /><polygon
       class="st0"
       points="314.2,404.7 312.9,406.1 313.8,407.7 312.2,406.9 310.8,408.3 311.1,406.4 309.5,405.6 311.3,405.3 311.5,403.4 312.4,405.1 "
       id="polygon86"
       style="clip-rule:evenodd;fill:#ffffff;fill-rule:evenodd" /><polygon
       class="st0"
       points="309.6,409.5 308,410.5 308.5,412.2 307,411.1 305.4,412.2 306.2,410.4 304.7,409.2 306.6,409.3 307.2,407.6 307.7,409.4 "
       id="polygon88"
       style="clip-rule:evenodd;fill:#ffffff;fill-rule:evenodd" /><polygon
       class="st0"
       points="304.1,412.8 302.4,413.5 302.5,415.3 301.3,413.9 299.5,414.6 300.6,413 299.4,411.6 301.2,412 302.1,410.5 302.3,412.3 "
       id="polygon90"
       style="clip-rule:evenodd;fill:#ffffff;fill-rule:evenodd" /><polygon
       class="st0"
       points="297.9,414.8 296.1,415.1 295.7,416.9 294.9,415.3 293,415.5 294.4,414.2 293.6,412.6 295.3,413.4 296.6,412.2 296.3,414 "
       id="polygon92"
       style="clip-rule:evenodd;fill:#ffffff;fill-rule:evenodd" /><path
       class="st5"
       d="m 292,364.6 c 12.4,0 22.6,10.1 22.6,22.6 0,12.4 -10.1,22.6 -22.6,22.6 -12.4,0 -22.6,-10.1 -22.6,-22.6 0.1,-12.4 10.2,-22.6 22.6,-22.6 z"
       id="path94"
       inkscape:connector-curvature="0"
       style="clip-rule:evenodd;fill:#ffffff;fill-rule:evenodd;stroke:#000000;stroke-width:0.5;stroke-miterlimit:2.61310005" /><path
       class="st7"
       d="m 292,365.9 c 11.7,0 21.3,9.6 21.3,21.3 0,11.7 -9.6,21.3 -21.3,21.3 -11.7,0 -21.3,-9.6 -21.3,-21.3 0,-11.7 9.6,-21.3 21.3,-21.3 z"
       id="path96"
       inkscape:connector-curvature="0"
       style="clip-rule:evenodd;fill:#ed1c24;fill-rule:evenodd;stroke:#000000;stroke-width:0.5;stroke-miterlimit:2.61310005" /><polygon
       class="st8"
       points="280.4,403.2 279.8,391.2 273.3,381.2 284.5,376.8 292,367.5 299.6,376.8 310.8,381.2 304.3,391.2 303.6,403.2 292,400.1 "
       id="polygon98"
       style="clip-rule:evenodd;fill:#fff200;fill-rule:evenodd" /><polygon
       class="st9"
       points="292,367.5 292,387.3 299.6,376.8 "
       id="polygon100"
       style="clip-rule:evenodd;fill:#d2ab67;fill-rule:evenodd" /><polygon
       class="st9"
       points="273.3,381.2 292,387.3 284.5,376.8 "
       id="polygon102"
       style="clip-rule:evenodd;fill:#d2ab67;fill-rule:evenodd" /><polygon
       class="st9"
       points="292,387.3 310.8,381.2 304.3,391.2 "
       id="polygon104"
       style="clip-rule:evenodd;fill:#d2ab67;fill-rule:evenodd" /><polygon
       class="st9"
       points="292,387.3 303.6,403.2 292,400.1 "
       id="polygon106"
       style="clip-rule:evenodd;fill:#d2ab67;fill-rule:evenodd" /><polygon
       class="st9"
       points="279.8,391.2 292,387.3 280.4,403.2 "
       id="polygon108"
       style="clip-rule:evenodd;fill:#d2ab67;fill-rule:evenodd" /><path
       class="st3"
       d="m 219.7,361.2 9.5,9.6 c 0.5,0.5 0.9,0.5 1.4,0 l 0.9,-0.9 c 0.5,-0.5 0.5,-0.9 0,-1.4 l -2.1,-2.2 3.2,-3.1 c 0.9,-0.9 0.9,-2.4 0.3,-3 l -5.1,-5.1 c -0.8,-0.8 -2.2,-0.9 -3.1,-0.1 l -4.9,4.9 c -0.3,0.4 -0.3,1 -0.1,1.3 z m 4.1,-0.6 2.5,-2.5 3.4,3.4 -2.5,2.5 z"
       id="path110"
       inkscape:connector-curvature="0"
       style="clip-rule:evenodd;fill-rule:evenodd" /><path
       class="st3"
       d="m 333,334.8 1,0.8 c 0.6,0.4 0.6,0.8 0.2,1.4 l -8.3,10.5 c -0.4,0.5 -0.8,0.6 -1.4,0.1 l -1,-0.8 c -0.6,-0.4 -0.6,-0.8 -0.2,-1.4 l 4.2,-5.2 4.2,-5.2 c 0.3,-0.6 0.7,-0.6 1.3,-0.2 z"
       id="path112"
       inkscape:connector-curvature="0"
       style="clip-rule:evenodd;fill-rule:evenodd" /><path
       class="st3"
       d="m 317,324.8 1.2,0.5 c 0.6,0.3 0.8,0.7 0.5,1.3 l -5.6,12.2 c -0.3,0.6 -0.6,0.7 -1.3,0.5 l -1.2,-0.5 c -0.6,-0.3 -0.8,-0.7 -0.5,-1.3 l 2.8,-6.1 2.8,-6.1 c 0.2,-0.6 0.6,-0.8 1.3,-0.5 z"
       id="path114"
       inkscape:connector-curvature="0"
       style="clip-rule:evenodd;fill-rule:evenodd" /><path
       class="st3"
       d="m 265.2,323.3 1.2,-0.5 c 0.7,-0.3 1,-0.1 1.3,0.5 l 4.9,12.5 c 0.2,0.6 0.1,1 -0.6,1.2 l -1.2,0.5 c -0.7,0.3 -1,0.1 -1.3,-0.5 l -2.4,-6.2 -2.4,-6.2 c -0.3,-0.6 -0.2,-1 0.5,-1.3 z"
       id="path116"
       inkscape:connector-curvature="0"
       style="clip-rule:evenodd;fill-rule:evenodd" /><path
       class="st3"
       d="m 246.3,334.3 1,-0.8 c 0.6,-0.5 0.9,-0.4 1.4,0.1 l 8.5,10.4 c 0.4,0.5 0.4,0.9 -0.2,1.4 l -1,0.8 c -0.6,0.5 -0.9,0.4 -1.4,-0.1 l -4.2,-5.2 -4.2,-5.2 c -0.5,-0.6 -0.4,-1 0.1,-1.4 z"
       id="path118"
       inkscape:connector-curvature="0"
       style="clip-rule:evenodd;fill-rule:evenodd" /><path
       class="st3"
       d="m 229.6,349.5 3.2,-3.2 c 1.5,-1.5 2.6,-1.3 3.9,0 l 6.9,7 c 1.3,1.3 1.5,2.4 0,3.9 l -3.2,3.2 c -1.5,1.5 -2.6,1.3 -3.9,0 l -6.9,-7 c -1.3,-1.3 -1.5,-2.4 0,-3.9 z m 2.7,1.9 2.5,-2.5 6.1,6.2 -2.5,2.5 z"
       id="path120"
       inkscape:connector-curvature="0"
       style="clip-rule:evenodd;fill-rule:evenodd" /><path
       class="st3"
       d="m 253.8,329.1 3.9,-2.3 c 1.9,-1.1 2.9,-0.6 3.8,0.9 0.4,0.7 0.8,1.4 1.3,2.1 0.2,0.4 0.2,0.8 -0.2,1.1 l -1.5,0.9 c -0.4,0.2 -0.8,0.1 -1.1,-0.3 l -1,-1.6 -3,1.8 4.5,7.5 3,-1.8 -0.9,-1.4 c -0.2,-0.4 -0.2,-0.8 0.2,-1.1 0.5,-0.3 1,-0.6 1.5,-0.9 0.5,-0.2 0.8,-0.1 1.1,0.3 l 1.1,1.9 c 0.9,1.5 0.9,2.6 -1,3.8 l -3.9,2.3 c -1.9,1.1 -2.9,0.6 -3.8,-0.9 l -5.1,-8.4 c -0.8,-1.7 -0.8,-2.8 1.1,-3.9 z"
       id="path122"
       inkscape:connector-curvature="0"
       style="clip-rule:evenodd;fill-rule:evenodd" /><path
       class="st3"
       d="m 323.7,328.3 1.1,0.7 c 0.6,0.4 0.7,0.8 0.3,1.3 l -6.1,9.2 3.5,2.4 c 0.4,0.3 0.5,0.8 0.3,1.1 l -1,1.5 c -0.2,0.3 -0.7,0.4 -1.1,0.2 l -4.3,-2.9 v 0 l -1.1,-0.7 c -0.6,-0.4 -0.7,-0.8 -0.3,-1.3 l 3.7,-5.6 3.7,-5.6 c 0.3,-0.6 0.7,-0.7 1.3,-0.3 z"
       id="path124"
       inkscape:connector-curvature="0"
       style="clip-rule:evenodd;fill-rule:evenodd" /><path
       class="st3"
       d="m 237.6,341.5 1,-0.9 c 0.5,-0.5 0.9,-0.4 1.4,0.1 l 7.3,8.3 3.2,-2.8 c 0.4,-0.3 0.9,-0.3 1.1,0 l 1.2,1.3 c 0.3,0.3 0.2,0.8 -0.2,1.1 l -3.9,3.4 v 0 l -1,0.8 c -0.5,0.5 -0.9,0.4 -1.4,-0.1 l -4.4,-5 -4.4,-5 c -0.4,-0.3 -0.4,-0.7 0.1,-1.2 z"
       id="path126"
       inkscape:connector-curvature="0"
       style="clip-rule:evenodd;fill-rule:evenodd" /><path
       class="st3"
       d="m 346.8,347.3 2,2.1 c 0.9,0.9 0.8,2.2 0.2,3.1 l -7.5,9.8 c -0.4,0.5 -0.8,0.6 -1.3,0.2 l -1.1,-1.2 c -0.4,-0.4 -0.1,-1.1 0.3,-1.6 l 1.3,-1.7 -2.6,-2.7 -1.7,1.2 c -0.5,0.4 -1.2,0.7 -1.6,0.2 l -1.1,-1.2 c -0.4,-0.4 -0.3,-0.9 0.2,-1.3 l 9.9,-7.3 c 0.8,-0.5 2.2,-0.5 3,0.4 z m -2.4,3.3 -3.8,2.8 2,2 2.9,-3.7 c 0.6,-0.8 -0.3,-1.7 -1.1,-1.1 z"
       id="path128"
       inkscape:connector-curvature="0"
       style="clip-rule:evenodd;fill-rule:evenodd" /><path
       class="st3"
       d="m 275.6,320.1 2.9,-0.6 c 1.2,-0.2 2.3,0.5 2.7,1.6 l 4,11.6 c 0.2,0.6 0.1,1 -0.5,1.2 l -1.6,0.3 c -0.6,0.1 -1,-0.5 -1.2,-1.1 l -0.7,-2 -3.7,0.7 0.1,2.1 c 0,0.6 -0.1,1.4 -0.7,1.5 l -1.6,0.3 c -0.6,0.1 -0.9,-0.3 -0.9,-0.9 l -0.6,-12.3 c -0.2,-1 0.6,-2.1 1.8,-2.4 z m 1.4,3.8 0.2,4.7 2.8,-0.5 -1.5,-4.4 c -0.3,-1 -1.5,-0.7 -1.5,0.2 z"
       id="path130"
       inkscape:connector-curvature="0"
       style="clip-rule:evenodd;fill-rule:evenodd" /><path
       class="st3"
       d="m 353.8,354.6 0.8,0.9 0.1,0.1 3.5,3.8 c 0.8,0.9 0.8,2.4 -0.1,3.2 l -3.9,3.6 v 0 l -1.2,1.1 c 0,0 -0.1,0.1 -0.1,0.1 l -0.1,0.1 c 0,0 -0.1,0.1 -0.1,0.1 -0.5,0.4 -1.2,0.4 -1.8,0 0.2,0.5 0.1,0.8 -0.1,1 l -1.2,2.5 c -0.3,0.6 -0.9,0.6 -1.2,0.3 l -1.3,-1.4 c -0.4,-0.4 -0.3,-0.7 -0.1,-1.1 l 1.2,-2.5 c 0.3,-0.7 0.5,-1.1 -0.5,-2.1 l -0.4,-0.5 -2.5,2.3 v 0 c -0.5,0.4 -0.9,0.5 -1.3,-0.1 v 0 l -0.1,-0.1 -0.8,-0.9 c -0.5,-0.5 -0.5,-0.9 0,-1.4 l 4.9,-4.5 4.9,-4.5 c 0.6,-0.5 1,-0.5 1.4,0 z m -5.5,11.7 c 0,0 0,0 0,0 z m 4.7,-7.8 -3.2,2.9 2.1,2.3 3.2,-2.9 z"
       id="path132"
       inkscape:connector-curvature="0"
       style="clip-rule:evenodd;fill-rule:evenodd" /><path
       class="st3"
       d="m 337.4,338.3 2.3,2.1 1,0.9 2.3,2.1 c 0.3,0.3 0.3,0.7 0,1 l -1.2,1.3 c -0.3,0.3 -0.7,0.3 -1,0 l -1.5,-1.4 -7.4,8.2 c -0.4,0.5 -0.8,0.5 -1.4,0 l -1,-0.9 c -0.5,-0.5 -0.5,-0.9 -0.1,-1.4 l 4.5,-5 2.9,-3.2 -1.5,-1.4 c -0.3,-0.3 -0.3,-0.7 0,-1 l 1.2,-1.3 c 0.2,-0.2 0.6,-0.3 0.9,0 z"
       id="path134"
       inkscape:connector-curvature="0"
       style="clip-rule:evenodd;fill-rule:evenodd" /><path
       class="st3"
       d="m 299.9,319.5 c 0.5,0.1 0.7,0.2 0.9,1.2 l 1.7,8.7 5.6,-6.8 c 0.7,-0.8 0.9,-0.7 1.4,-0.6 0.4,0.1 0.8,0.2 1.2,0.3 0.7,0.2 0.9,0.5 0.7,1.2 l -1.6,6.5 -1.6,6.5 c -0.2,0.6 -0.5,0.8 -1.2,0.7 l -1.3,-0.3 c -0.7,-0.2 -0.9,-0.5 -0.7,-1.2 l 1.5,-6 -4.1,4.9 c -0.2,0.3 -0.9,0.8 -1.4,0.7 -0.6,-0.1 -0.9,-0.9 -1,-1.3 l -1.2,-6.3 -1.5,6 c -0.2,0.6 -0.5,0.8 -1.2,0.7 l -1.3,-0.3 c -0.7,-0.2 -0.9,-0.5 -0.7,-1.2 l 1.6,-6.5 1.6,-6.5 c 0.2,-0.6 0.5,-0.8 1.2,-0.7 0.6,0.1 1,0.2 1.4,0.3 z"
       id="path136"
       inkscape:connector-curvature="0"
       style="clip-rule:evenodd;fill-rule:evenodd" /><path
       class="st3"
       d="m 232.4,391 c 2.4,31.2 28.2,55.9 59.4,55.9 24.6,0 45.8,-15.3 54.8,-37.1 l -5.3,5.4 c -9.9,17.5 -28.4,29.3 -49.5,29.3 -29.9,0 -54.5,-23.7 -57,-53.5 z"
       id="path138"
       inkscape:connector-curvature="0"
       style="clip-rule:evenodd;fill-rule:evenodd" /><path
       class="st3"
       d="m 289.2,312.5 c 0.6,0 1.2,0 1.9,0 v 0 c 39.8,1.3 55.8,25.6 79.9,50.2 l -13.9,14.2 c -2,2 -3,3.6 -3.4,6.9 h -3 c 0.4,-3.7 1.5,-6.3 4.1,-8.9 l 12.4,-12.4 c -22.7,-23.9 -40.7,-47.1 -77.5,-47.4 0,0 0,0 0,0 -0.1,0 -0.3,0 -0.4,0 0,0 0,0 0,0 0,0 -0.1,0 -0.1,0 0,0 -0.1,0 -0.1,0 0,0 0,0 0,0 -0.1,0 -0.3,0 -0.4,0 0,0 0,0 0,0 -36.6,0.4 -54.6,23.3 -77.1,47.1 l 14.2,14.1 -2.1,2.1 -14.7,-14.9 c -0.4,-0.4 -0.8,-0.8 -1.2,-1.2 l 1.8,-2 c 23,-23.8 39.2,-46.7 77.7,-47.9 v 0 c 0.7,0.1 1.3,0.1 1.9,0.1 z"
       id="path140"
       inkscape:connector-curvature="0"
       style="clip-rule:evenodd;fill-rule:evenodd" /><path
       class="st3"
       d="m 267.4,433.5 1.2,0.5 -0.2,0.5 1.7,0.7 0.5,-1.2 -2.5,-1 c -0.3,-0.1 -0.4,-0.4 -0.3,-0.7 v 0 c 0,0 0,-0.1 0.1,-0.1 l 0.8,-1.9 v 0 c 0,0 0,0 0,-0.1 v 0 c 0.1,-0.3 0.4,-0.4 0.7,-0.3 l 3.2,1.3 c 0.2,0.1 0.4,0.4 0.3,0.6 v 0 l -0.4,1.1 -1.2,-0.5 0.2,-0.5 -1.7,-0.7 -0.5,1.1 2.4,1 c 0.3,0.1 0.4,0.4 0.3,0.7 v 0 c 0,0 0,0 0,0 v 0 l -0.9,2.2 c -0.1,0.3 -0.4,0.4 -0.7,0.3 l -3.2,-1.3 c -0.3,-0.1 -0.4,-0.4 -0.3,-0.7 v 0 0 z"
       id="path142"
       inkscape:connector-curvature="0"
       style="clip-rule:evenodd;fill-rule:evenodd" /><path
       class="st3"
       d="m 294.7,438.5 2,-0.2 -0.6,-1.9 c -0.1,-0.3 -0.2,-0.5 -0.6,-0.5 v 0 c -0.4,0 -0.5,0.3 -0.5,0.6 z m 2.3,0.9 -2.4,0.2 -0.2,1.1 -1.4,0.1 0.6,-4.7 c 0.1,-0.8 0.2,-1.2 1,-1.3 l 0.7,-0.1 v 0 l 0.7,-0.1 c 0.8,-0.1 1,0.3 1.2,1.1 l 1.4,4.5 -1.4,0.1 z"
       id="path144"
       inkscape:connector-curvature="0"
       style="clip-rule:evenodd;fill-rule:evenodd" /><path
       class="st3"
       d="m 274.4,435.5 1.9,0.6 0.2,-2 c 0,-0.3 0,-0.6 -0.3,-0.7 v 0 c -0.4,-0.1 -0.5,0.1 -0.7,0.3 z m 1.7,1.7 -2.3,-0.8 -0.6,1 -1.3,-0.4 2.4,-4 c 0.4,-0.7 0.7,-1 1.4,-0.7 l 0.6,0.2 v 0 l 0.6,0.2 c 0.7,0.3 0.8,0.7 0.7,1.5 l -0.5,4.7 -1.3,-0.4 z"
       id="path146"
       inkscape:connector-curvature="0"
       style="clip-rule:evenodd;fill-rule:evenodd" /><path
       class="st3"
       d="m 276.3,430.7 2.6,0.9 -0.4,0.4 c -0.3,0.4 -0.7,0.4 -1.2,0.3 l -2.6,-0.9 0.4,-0.4 c 0.4,-0.4 0.8,-0.5 1.2,-0.3 z"
       id="path148"
       inkscape:connector-curvature="0"
       style="clip-rule:evenodd;fill-rule:evenodd" /><path
       class="st3"
       d="m 313.2,430.1 c 0.3,-0.1 0.6,0 0.7,0.3 l 1.8,4.3 c 0.1,0.3 0,0.6 -0.3,0.7 l -3.1,1.3 v 0 l -0.2,0.1 c -0.3,0.1 -0.6,0 -0.7,-0.3 l -1.8,-4.3 c -0.1,-0.3 0,-0.6 0.3,-0.7 z m 1,4.6 -1.4,-3.3 -1.9,0.8 1.4,3.3 z"
       id="path150"
       inkscape:connector-curvature="0"
       style="clip-rule:evenodd;fill-rule:evenodd" /><path
       class="st3"
       d="m 283.7,434.3 c 0.3,0.1 0.5,0.4 0.4,0.6 l -1,4.6 c -0.1,0.3 -0.4,0.5 -0.6,0.4 l -3.3,-0.7 v 0 l -0.3,-0.1 c -0.3,-0.1 -0.5,-0.4 -0.4,-0.6 l 1,-4.6 c 0.1,-0.3 0.4,-0.5 0.6,-0.4 z m -1.8,4.4 0.8,-3.5 -2,-0.4 -0.8,3.5 z"
       id="path152"
       inkscape:connector-curvature="0"
       style="clip-rule:evenodd;fill-rule:evenodd" /><path
       class="st3"
       d="m 288.3,434.9 h 0.8 l 2.3,0.1 h 0.1 c 0,0 0,0 0,0 v 0 c 0,0 0,0 0,0 v 0 c 0,0 0,0 0,0 v 0 c 0,0 0,0 0,0 v 0 c 0,0 0,0 0,0 0,0 0,0 0,0 v 0 c 0,0 0,0 0,0 v 0 c 0,0 0,0 0,0 v 0 c 0,0 0,0 0,0 0,0 0,0 0,0 0,0 0,0 0,0 0,0 0,0 0,0 0,0 0,0 0,0 v 0 c 0,0 0,0 0,0 0,0 0,0 0,0 v 0 0 c 0,0 0,0 0,0 0,0 0,0 0.1,0 0,0 0,0 0,0 0,0 0,0 0,0 0,0 0,0 0,0 v 0 c 0,0 0,0 0,0 0,0 0,0 0.1,0 0,0 0,0 0,0 0.1,0.1 0.1,0.2 0.2,0.3 v 0 c 0,0 0,0 0,0 0,0 0,0 0,0 0,0 0,0 0,0 0,0 0,0 0,0 0,0 0,0 0,0 0,0 0,0 0,0 0,0 0,0 0,0 v 0 c 0,0 0,0 0,0 v 0 0 0 0 0 c 0,0 0,0 0,0 v 0 0 0 0 0 l -0.1,2.9 v 0 0 c 0,0 0,0 0,0 0,0 0,0 0,0 0,0.3 -0.3,0.5 -0.6,0.5 l -2.5,-0.1 -0.1,1.8 h -1.3 l 0.1,-2.4 0.1,-2.9 v -0.5 z m 3.4,0.2 c 0,0 0,0 0,0 z m 0.4,0.5 z m -4.4,-0.2 z m 2.9,2.5 c 0,0 0,0 0,0 0,-0.1 0,-0.1 0,0 l 0.1,-1.8 -1.7,-0.1 -0.1,1.8 z"
       id="path154"
       inkscape:connector-curvature="0"
       style="clip-rule:evenodd;fill-rule:evenodd" /><path
       class="st3"
       d="m 302.3,433.8 1.3,-0.3 1.2,5.1 v 0 c 0,0 0,0 0,0 v 0 c 0.1,0.3 -0.1,0.6 -0.4,0.7 l -3.5,0.8 c -0.3,0.1 -0.6,-0.1 -0.7,-0.4 v 0 c 0,0 0,0 0,0 v 0 l -1.2,-5.1 1.3,-0.3 1,4.5 2,-0.5 z"
       id="path156"
       inkscape:connector-curvature="0"
       style="clip-rule:evenodd;fill-rule:evenodd" /><path
       class="st3"
       d="m 310.3,436.3 c 0.2,0.6 0.1,0.4 0.4,1 l -3.5,1.2 c -0.3,0.1 -0.6,-0.1 -0.7,-0.4 v 0 c 0,0 0,0 0,0 v 0 l -1.6,-4.9 1.3,-0.4 1.5,4.4 z"
       id="path158"
       inkscape:connector-curvature="0"
       style="clip-rule:evenodd;fill-rule:evenodd" /></g><text
     xml:space="preserve"
     style="font-style:normal;font-weight:normal;font-size:42.66666794px;line-height:1.25;font-family:sans-serif;letter-spacing:0px;word-spacing:0px;fill:#000000;fill-opacity:1;stroke:none"
     x="-4.1875"
     y="223.61804"
     id="text1212"><tspan
       sodipodi:role="line"
       id="tspan1210"
       x="-4.1875"
       y="223.61804"></tspan></text>
</svg>